<svg xmlns="http://www.w3.org/2000/svg" xmlns:xlink="http://www.w3.org/1999/xlink" version="1.1" id="Capa_1" x="0" y="0" viewBox="0 0 419.49 419.49" xml:space="preserve" enable-background="new 0 0 419.49 419.49"><g id="Cloud"><path d="M349.29 190.56c-9.09-67.53-53.01-116.87-122.54-116.87 -58.21 0-90.43 34.56-110.29 88.21 -7.23-1.75-14.72-2.63-22.24-2.63C42.22 159.27 0 203.9 0 255.1c0 48.98 40.7 87.75 90.7 90.7h249.43c43.36 0 79.36-36.67 79.36-79.36C419.49 226.91 388.88 194.73 349.29 190.56zM340.13 323.12H90.7c-36.1-2.13-68.03-32.42-68.03-68.03 0-37.21 33.76-70.45 71.54-70.45 8.84 0 17.53 1.68 25.8 4.99l13.67 5.49 3.67-14.06c12.81-49 38.05-84.69 89.39-84.69 60.29 0 95.19 47.96 97.89 107.34l0.59 12.88 15.65-1.11c29.16 0 55.96 22.24 55.96 50.95C396.82 295.14 369.29 323.12 340.13 323.12z" fill="#A1B1DE"/></g></svg>