<svg xmlns="http://www.w3.org/2000/svg" xmlns:xlink="http://www.w3.org/1999/xlink" id="svg" width="1343" height="734.95" isolation="isolate"><g transform="translate(0,0)"><g shape="[GCompoundPath]"><path d="M730 568L601 696 640 734 769 606 730 568ZM874 568L745 696 783 734 912 606 874 568ZM894 696L932 734 1061 606 1023 568 894 696ZM1175 282C1153 122 1049 5 883 5 744 5 667 87 620 214 603 210 585 208 567 208 443 208 343 314 343 436 343 552 440 644 559 651L608 651 608 597 559 597C473 592 397 520 397 436 397 347 477 268 567 268 588 268 609 272 629 280L661 293 670 260C700 143 761 58 883 58 1027 58 1110 172 1116 313L1118 344 1155 341C1225 341 1289 394 1289 462 1289 531 1223 597 1153 597L1083 597 1083 651 1153 651C1257 651 1343 564 1343 462 1343 369 1270 292 1175 282Z" style="fill-rule:evenodd;fill:#1B3BA2"/></g></g></svg>