<svg xmlns="http://www.w3.org/2000/svg" xmlns:xlink="http://www.w3.org/1999/xlink" id="svg" width="1239" height="839.67" isolation="isolate"><g transform="translate(0,120.99999999999999)"><g shape="[GCompoundPath]"><path d="M1071 161C1050-2 945-121 779-121 640-121 563-38 516 92 499 88 481 86 463 86 339 86 239 194 239 317 239 436 336 522 455 529L482 529 482 475 455 475C369 470 293 404 293 317 293 227 373 147 463 147 484 147 505 151 525 159L557 172 566 138C597 20 657-67 779-67 923-67 1006 49 1012 193L1014 224 1051 222C1121 222 1185 275 1185 345 1185 414 1119 475 1049 475L968 475 968 529 1049 529C1153 529 1239 448 1239 345 1239 249 1166 171 1071 161ZM893 375L866 391 868 363 826 359 820 418 746 463 746 373 792 339 768 303 746 319 746 286 704 286 704 319 682 303 658 339 704 374 704 463 630 418 624 359 582 363 584 391 558 375 536 413 563 430 539 441 557 482 608 457 682 502 608 547 557 522 539 563 563 574 536 591 557 630 584 613 582 641 624 645 630 586 704 541 704 631 657 665 682 702 704 686 704 718 746 718 746 686 768 702 792 665 746 631 746 541 820 586 826 645 868 641 866 613 892 630 914 591 887 574 911 563 893 522 842 547 768 502 842 457 893 482 911 441 887 430 914 413 893 375Z" style="fill-rule:evenodd;fill:#C7D3E2"/></g></g></svg>