<svg xmlns="http://www.w3.org/2000/svg" xmlns:xlink="http://www.w3.org/1999/xlink" id="svg" width="1162" height="735.65" isolation="isolate"><g transform="translate(2,-133)"><g shape="[GCompoundPath]"><path d="M921 551L958 588C1006 555 1037 501 1037 439 1037 337 955 255 854 255 792 255 737 285 704 331L741 369C764 331 806 307 854 307 926 307 985 366 985 439 985 486 959 528 921 551ZM854 237C868 237 880 226 880 211L880 159C880 144 868 133 854 133 839 133 827 144 827 159L827 211C827 226 839 237 854 237ZM1028 290C1036 290 1042 287 1047 282L1082 247C1087 242 1090 236 1090 229 1090 214 1078 202 1063 202 1056 202 1050 205 1045 210L1010 245C1005 250 1002 256 1002 264 1002 278 1014 290 1028 290ZM660 282C665 287 671 290 679 290 693 290 705 278 705 264 705 256 702 250 697 245L662 210C657 205 651 202 644 202 629 202 617 214 617 229 617 236 620 242 625 247L660 282ZM1133 412L1081 412C1066 412 1055 424 1055 439 1055 453 1066 465 1081 465L1133 465C1148 465 1160 453 1160 439 1160 424 1148 412 1133 412ZM1047 595C1042 590 1036 587 1028 587 1014 587 1002 599 1002 613 1002 621 1005 627 1010 632L1045 667C1050 672 1056 675 1063 675 1078 675 1090 663 1090 648 1090 641 1087 635 1082 630L1047 595Z" style="fill-rule:evenodd;fill:#FD0"/></g><g shape="[GCompoundPath]"><path d="M830 498C808 337 704 220 538 220 399 220 322 302 275 430 258 426 240 424 222 424 98 424-2 530-2 652 -2 769 95 861 214 868L808 868C912 868 998 781 998 679 998 585 925 508 830 498ZM808 814L214 814C128 809 52 737 52 652 52 563 132 484 222 484 243 484 264 488 284 496L316 509 325 475C355 359 416 274 538 274 682 274 765 388 771 529L773 560 810 557C880 557 944 611 944 679 943 747 878 814 808 814Z" style="fill-rule:evenodd;fill:#A1B1DE"/></g></g></svg>