<svg xmlns="http://www.w3.org/2000/svg" xmlns:xlink="http://www.w3.org/1999/xlink" style="display: none">
  <symbol id="svg-sun" viewBox="0 0 32 32">
    <g transform="translate(-394,-154)">
      <g shape="[GCompoundPath]">
        <path id="sun" d="M498 460C498 445 487 433 472 433L420 433C405 433 394 445 394 460 394 474 405 486 420 486L472 486C487 486 498 474 498 460ZM525 608C517 608 511 611 506 616L471 651C466 656 463 662 463 669 463 684 475 696 490 696 497 696 503 693 508 688L543 653C548 648 551 642 551 634 551 620 539 608 525 608ZM700 258C714 258 726 247 726 232L726 180C726 165 714 154 700 154 685 154 673 165 673 180L673 232C673 247 685 258 700 258ZM874 311C882 311 888 308 893 303L928 268C933 263 936 257 936 250 936 235 924 223 909 223 902 223 896 226 891 231L856 266C851 271 848 277 848 285 848 299 860 311 874 311ZM506 303C511 308 517 311 525 311 539 311 551 299 551 285 551 277 548 271 543 266L508 231C503 226 497 223 490 223 475 223 463 235 463 250 463 257 466 263 471 268L506 303ZM979 433L927 433C912 433 901 445 901 460 901 474 912 486 927 486L979 486C994 486 1006 474 1006 460 1006 445 994 433 979 433ZM893 616C888 611 882 608 874 608 860 608 848 620 848 634 848 642 851 648 856 653L891 688C896 693 902 696 909 696 924 696 936 684 936 669 936 662 933 656 928 651L893 616ZM700 661C685 661 673 672 673 687L673 739C673 754 685 766 700 766 714 766 726 754 726 739L726 687C726 672 714 661 700 661ZM700 276C598 276 516 358 516 460 516 561 598 643 700 643 801 643 883 561 883 460 883 358 801 276 700 276ZM700 591C627 591 568 532 568 460 568 387 627 328 700 328 772 328 831 387 831 460 831 532 772 591 700 591Z" fill="#FD0"></path>
      </g>
    </g>
  </symbol>
  <symbol id="svg-cloudWithSun" viewBox="0 0 32 32">
    <g transform="translate(2,-133)">
      <g shape="[GCompoundPath]">
        <path id="sun-behindcloud" d="M921 551L958 588C1006 555 1037 501 1037 439 1037 337 955 255 854 255 792 255 737 285 704 331L741 369C764 331 806 307 854 307 926 307 985 366 985 439 985 486 959 528 921 551ZM854 237C868 237 880 226 880 211L880 159C880 144 868 133 854 133 839 133 827 144 827 159L827 211C827 226 839 237 854 237ZM1028 290C1036 290 1042 287 1047 282L1082 247C1087 242 1090 236 1090 229 1090 214 1078 202 1063 202 1056 202 1050 205 1045 210L1010 245C1005 250 1002 256 1002 264 1002 278 1014 290 1028 290ZM660 282C665 287 671 290 679 290 693 290 705 278 705 264 705 256 702 250 697 245L662 210C657 205 651 202 644 202 629 202 617 214 617 229 617 236 620 242 625 247L660 282ZM1133 412L1081 412C1066 412 1055 424 1055 439 1055 453 1066 465 1081 465L1133 465C1148 465 1160 453 1160 439 1160 424 1148 412 1133 412ZM1047 595C1042 590 1036 587 1028 587 1014 587 1002 599 1002 613 1002 621 1005 627 1010 632L1045 667C1050 672 1056 675 1063 675 1078 675 1090 663 1090 648 1090 641 1087 635 1082 630L1047 595Z" fill="#FD0"></path>
      </g>
      <g shape="[GCompoundPath]">
        <path id="cloud-infrontofsun" d="M830 498C808 337 704 220 538 220 399 220 322 302 275 430 258 426 240 424 222 424 98 424-2 530-2 652 -2 769 95 861 214 868L808 868C912 868 998 781 998 679 998 585 925 508 830 498ZM808 814L214 814C128 809 52 737 52 652 52 563 132 484 222 484 243 484 264 488 284 496L316 509 325 475C355 359 416 274 538 274 682 274 765 388 771 529L773 560 810 557C880 557 944 611 944 679 943 747 878 814 808 814Z" fill="#A1B1DE"></path>
      </g>
    </g>
  </symbol>
  <symbol id="svg-cloudWithRain" viewBox="0 0 32 32">
    <g transform="translate(0,0)">
      <g shape="[GCompoundPath]">
        <path id="cloudwithrain" d="M730 568L601 696 640 734 769 606 730 568ZM874 568L745 696 783 734 912 606 874 568ZM894 696L932 734 1061 606 1023 568 894 696ZM1175 282C1153 122 1049 5 883 5 744 5 667 87 620 214 603 210 585 208 567 208 443 208 343 314 343 436 343 552 440 644 559 651L608 651 608 597 559 597C473 592 397 520 397 436 397 347 477 268 567 268 588 268 609 272 629 280L661 293 670 260C700 143 761 58 883 58 1027 58 1110 172 1116 313L1118 344 1155 341C1225 341 1289 394 1289 462 1289 531 1223 597 1153 597L1083 597 1083 651 1153 651C1257 651 1343 564 1343 462 1343 369 1270 292 1175 282Z" fill="#1B3BA2"></path>
      </g>
    </g>
  </symbol>
  <symbol id="svg-cloudWithSnow" viewBox="0 0 32 32">
    <g transform="translate(0,118.00000000000001)">
      <g shape="[GCompoundPath]">
        <path id="cloudwithsnow" d="M1346 164C1325 1 1220-118 1054-118 915-118 838-35 791 95 774 91 756 89 738 89 614 89 514 197 514 320 514 439 611 525 730 532L757 532 757 478 730 478C644 473 568 407 568 320 568 230 648 150 738 150 759 150 780 154 800 162L832 175 841 141C872 23 932-64 1054-64 1198-64 1281 52 1287 196L1289 227 1326 225C1396 225 1460 278 1460 348 1460 417 1394 478 1324 478L1243 478 1243 532 1324 532C1428 532 1514 451 1514 348 1514 252 1441 174 1346 164ZM1168 378L1141 394 1143 366 1101 362 1095 421 1021 466 1021 376 1067 342 1043 306 1021 322 1021 289 979 289 979 322 957 306 933 342 979 377 979 466 905 421 899 362 857 366 859 394 833 378 811 416 838 433 814 444 832 485 883 460 957 505 883 550 832 525 814 566 838 577 811 594 832 633 859 616 857 644 899 648 905 589 979 544 979 634 932 668 957 705 979 689 979 721 1021 721 1021 689 1043 705 1067 668 1021 634 1021 544 1095 589 1101 648 1143 644 1141 616 1167 633 1189 594 1162 577 1186 566 1168 525 1117 550 1043 505 1117 460 1168 485 1186 444 1162 433 1189 416 1168 378Z" fill="#C7D3E2"></path>
      </g>
    </g>
  </symbol> 
</svg>
