<svg xmlns="http://www.w3.org/2000/svg" id="svg" width="32" height="32" isolation="isolate"><g transform="translate(-394,-154)"><g shape="[GCompoundPath]"><path d="M498 460C498 445 487 433 472 433L420 433C405 433 394 445 394 460 394 474 405 486 420 486L472 486C487 486 498 474 498 460ZM525 608C517 608 511 611 506 616L471 651C466 656 463 662 463 669 463 684 475 696 490 696 497 696 503 693 508 688L543 653C548 648 551 642 551 634 551 620 539 608 525 608ZM700 258C714 258 726 247 726 232L726 180C726 165 714 154 700 154 685 154 673 165 673 180L673 232C673 247 685 258 700 258ZM874 311C882 311 888 308 893 303L928 268C933 263 936 257 936 250 936 235 924 223 909 223 902 223 896 226 891 231L856 266C851 271 848 277 848 285 848 299 860 311 874 311ZM506 303C511 308 517 311 525 311 539 311 551 299 551 285 551 277 548 271 543 266L508 231C503 226 497 223 490 223 475 223 463 235 463 250 463 257 466 263 471 268L506 303ZM979 433L927 433C912 433 901 445 901 460 901 474 912 486 927 486L979 486C994 486 1006 474 1006 460 1006 445 994 433 979 433ZM893 616C888 611 882 608 874 608 860 608 848 620 848 634 848 642 851 648 856 653L891 688C896 693 902 696 909 696 924 696 936 684 936 669 936 662 933 656 928 651L893 616ZM700 661C685 661 673 672 673 687L673 739C673 754 685 766 700 766 714 766 726 754 726 739L726 687C726 672 714 661 700 661ZM700 276C598 276 516 358 516 460 516 561 598 643 700 643 801 643 883 561 883 460 883 358 801 276 700 276ZM700 591C627 591 568 532 568 460 568 387 627 328 700 328 772 328 831 387 831 460 831 532 772 591 700 591Z" fill="#FD0"/></g></g></svg>