<svg xmlns="http://www.w3.org/2000/svg" xmlns:xlink="http://www.w3.org/1999/xlink" version="1.1" id="Capa_1" x="0" y="0" width="612" height="612" viewBox="0 0 612 612" xml:space="preserve" enable-background="new 0 0 612 612">
  <g id="Sun">
    <path d="M104.91 306c0-14.48-11.75-26.23-26.23-26.23H26.23C11.75 279.77 0 291.52 0 306c0 14.48 11.75 26.23 26.23 26.23h52.46C93.16 332.23 104.91 320.48 104.91 306zM131.14 454.63c-7.24 0-13.8 2.94-18.55 7.68l-34.97 34.97c-4.74 4.76-7.68 11.31-7.68 18.55 0 14.48 11.73 26.23 26.23 26.23 7.24 0 13.8-2.94 18.54-7.69l34.97-34.97c4.76-4.74 7.69-11.29 7.69-18.53C157.37 466.38 145.64 454.63 131.14 454.63zM306 104.91c14.5 0 26.23-11.75 26.23-26.23V26.23C332.23 11.75 320.5 0 306 0c-14.5 0-26.23 11.75-26.23 26.23v52.46C279.77 93.16 291.5 104.91 306 104.91zM480.86 157.37c7.24 0 13.8-2.94 18.53-7.68l34.97-34.97c4.76-4.76 7.69-11.31 7.69-18.55 0-14.48-11.73-26.23-26.23-26.23 -7.24 0-13.8 2.94-18.55 7.69l-34.97 34.97c-4.74 4.74-7.68 11.3-7.68 18.54C454.63 145.62 466.36 157.37 480.86 157.37zM112.59 149.7c4.76 4.74 11.31 7.68 18.55 7.68 14.48 0 26.23-11.75 26.23-26.23 0-7.24-2.94-13.8-7.68-18.55l-34.97-34.97c-4.76-4.74-11.31-7.68-18.55-7.68 -14.48 0-26.23 11.75-26.23 26.23 0 7.24 2.94 13.8 7.68 18.54L112.59 149.7zM585.77 279.77h-52.46c-14.48 0-26.23 11.75-26.23 26.23 0 14.48 11.75 26.23 26.23 26.23h52.46C600.25 332.23 612 320.48 612 306 612 291.52 600.25 279.77 585.77 279.77zM499.41 462.31c-4.76-4.74-11.31-7.68-18.55-7.68 -14.48 0-26.23 11.75-26.23 26.23 0 7.24 2.94 13.8 7.68 18.53l34.97 34.97c4.76 4.76 11.31 7.69 18.55 7.69 14.48 0 26.23-11.75 26.23-26.23 0-7.24-2.94-13.8-7.68-18.55L499.41 462.31zM306 507.09c-14.5 0-26.23 11.75-26.23 26.23v52.46C279.77 600.25 291.5 612 306 612c14.5 0 26.23-11.75 26.23-26.23v-52.46C332.23 518.84 320.5 507.09 306 507.09zM306 122.4c-101.24 0-183.6 82.36-183.6 183.6S204.76 489.6 306 489.6 489.6 407.24 489.6 306 407.24 122.4 306 122.4zM306 437.14c-72.32 0-131.14-58.82-131.14-131.14 0-72.32 58.82-131.14 131.14-131.14 72.32 0 131.14 58.82 131.14 131.14C437.14 378.32 378.32 437.14 306 437.14z" fill="#FD0"/>
  </g>
</svg>
